<svg width="414" height="422" viewBox="0 0 414 422" fill="none" xmlns="http://www.w3.org/2000/svg">
<path d="M208.2 350.7C131.1 350.7 68.3 287.9 68.3 210.8C68.3 133.7 131.1 70.9 208.2 70.9C285.3 70.9 348.1 133.7 348.1 210.8C348.1 287.9 285.3 350.7 208.2 350.7ZM208.2 72.9C132.2 72.9 70.3 134.8 70.3 210.8C70.3 286.8 132.2 348.7 208.2 348.7C284.2 348.7 346.1 286.8 346.1 210.8C346.1 134.8 284.2 72.9 208.2 72.9Z" fill="white"/>
<path d="M107.6 230.9C110.1 224 112.6 217.1 115.1 210.2C119.9 196.7 124.6 183.3 129.5 169.8C130.1 168 130.2 166.1 130.2 164.4C130.2 129.5 130.2 94.5 130.2 59.7C130.2 58.8 129.8 57.6 130.6 57.4C131.3 57.1 131.9 58.1 132.4 58.7C148 74.3 163.5 89.8 179.1 105.4C180.3 106.6 181.3 107 182.9 107C199.8 107 216.7 107 233.6 107C235.1 107 236.1 106.6 237.1 105.5C252.5 89.9 268.1 74.5 283.6 59C283.9 58.7 284.3 58.3 284.6 58C284.9 57.7 285.2 57.4 285.5 57.4C286.1 57.5 285.9 58.1 285.9 58.6C285.9 62.6 285.9 66.7 285.9 70.6C285.9 102.3 285.9 134.2 285.9 165.9C285.9 166.9 286 168 286.5 169C293.7 189.1 300.9 209.2 308.1 229.3C308.8 231.2 308.5 232.5 307.2 234.1C289 256.1 270.8 278.1 252.6 300C238.2 317.3 224 334.8 209.6 352.1C209.2 352.5 208.7 353 208.4 353.6C208.1 353.6 208 353.6 207.7 353.6C207.4 353.3 207.3 352.9 207 352.6C195.8 339.1 184.8 325.6 173.7 312.2C155.6 290.3 137.7 268.6 119.7 246.7C115.7 241.9 111.8 237.2 107.7 232.3C107.6 231.9 107.6 231.5 107.6 230.9ZM205.5 170.1C205.5 161 205.5 151.7 205.5 142.6C205.5 141.1 205.1 140.1 204 139.1C196.2 131.5 188.6 123.8 180.9 116C179.7 114.8 179.1 114.7 178 116.1C171.4 125.1 164.8 134 158 142.8C157.1 144 157 145 157.6 146.3C162 156.9 166.4 167.4 170.7 178C171.3 179.5 172.2 180.2 173.6 180.6C178.7 181.9 183.7 183.4 188.9 184.6C190.5 185 191 185.9 191.1 187.2C191.2 189.5 191.7 191.8 191.7 194C191.8 195.5 192.4 196.2 193.9 196.5C197 197.2 200.1 198.1 203.2 199C205.3 199.6 205.4 199.4 205.4 197.2C205.5 188.5 205.5 179.2 205.5 170.1ZM210.9 170.3C211 179.3 211 188.4 211 197.3C211 199.9 211.1 199.9 213.6 199.2C216.5 198.5 219.5 197.4 222.4 196.9C223.9 196.6 224.5 195.7 224.6 194.4C224.9 192.1 225.2 189.7 225.3 187.4C225.4 185.9 226 185.2 227.4 184.9C232.5 183.6 237.7 182.1 242.8 180.8C244 180.5 244.9 180.2 245.4 178.9C249.8 167.9 254.4 157 258.9 146C259.3 145.1 259.2 144.4 258.6 143.7C257 141.6 255.5 139.6 253.9 137.5C248.6 130.5 243.3 123.4 238 116.2C237.3 115.2 236.7 114.7 235.5 115.9C227.9 123.7 220.2 131.3 212.4 139C211.1 140.3 210.6 141.8 210.6 143.6C210.9 152.4 210.9 161.3 210.9 170.3ZM205.1 338.7C205.2 338.7 205.4 338.7 205.4 338.6C205.4 338.3 205.5 338 205.5 337.7C205.5 322.4 205.5 307 205.5 291.7C205.5 290.5 205.1 289.9 204.2 289.4C199.5 286.5 194.8 283.5 190 280.7C189 280.1 188.1 279.4 187.5 278.4C181.6 267.1 175.8 255.6 169.7 244.3C164.1 233.6 158.5 223 153 212.3C152.3 211 151.7 210.8 150.5 211.6C146.1 214.2 141.5 216.9 137 219.4C135.8 220 135.8 220.6 136.4 221.7C143.3 233.4 150.1 245.2 157 256.9C169.5 278.2 182 299.5 194.4 320.9C198 326.6 201.5 332.7 205.1 338.7ZM211.1 338.5C211.2 338.5 211.4 338.6 211.5 338.6C211.8 338.3 211.9 337.9 212.2 337.6C220.7 323.1 229.2 308.7 237.7 294.1C246.5 279 255.3 263.9 264.1 248.7C269.4 239.6 274.7 230.5 280.1 221.4C280.8 220.2 280.7 219.6 279.5 219.1C274.9 216.6 270.4 214 265.8 211.3C264.8 210.7 264.2 210.9 263.7 212C262.2 215.1 260.6 218 259 221.1C249.2 240 239.2 259 229.3 277.9C228.7 279.1 227.8 280 226.7 280.7C222 283.5 217.4 286.4 212.8 289.2C211.5 289.9 211 290.8 211 292.3C211 302 211 311.7 211 321.4C211.1 327.1 211.1 332.8 211.1 338.5ZM205.3 268.5C205.3 265.7 205.3 265.7 203.4 264.5C200.8 262.9 198.1 261.1 195.5 259.5C194.5 258.9 194 258.2 193.9 257C193.2 250.7 192.4 244.4 191.7 238.1C190.2 226.2 188.8 214.2 187.3 202.3C187.2 201.3 186.9 200.7 185.8 200.4C182.6 199.5 179.2 198.6 176 197.6C175.3 197.5 174.7 197.5 174.1 197.7C169 200.8 164 203.7 158.7 206.7C157.1 207.6 157.1 208.3 157.8 209.8C163.8 221.1 169.7 232.6 175.6 244C180.6 253.5 185.6 263.1 190.4 272.6C191.1 274.1 191.9 274.4 193.5 273.9C196.6 273 199.8 272.1 203 271.4C204.9 270.8 205.9 270.1 205.3 268.5ZM210.9 268.2C210.5 270.3 211.8 271 213.7 271.4C216.9 272.1 220 273 223.2 273.9C224.5 274.3 225.1 274 225.7 272.9C236.7 251.6 247.7 230.5 258.9 209.2C259.5 208.2 259.3 207.6 258.3 207C253.2 204.1 248 201.1 242.9 198C242 197.6 241.3 197.4 240.3 197.7C237.5 198.4 234.9 199.2 232.1 199.9C229.3 200.6 229.3 200.6 229 203.6C228.3 210.4 227.4 217.3 226.7 224C225.4 235 224.1 245.9 222.7 256.9C222.6 258.1 222.1 259 221.1 259.5C218.3 261.3 215.5 263 212.6 264.8C211.2 265.6 210.6 266.4 210.9 268.2ZM228.8 320C228.9 320 228.9 320.1 229.1 320.1C230.1 318.9 231.2 317.6 232.2 316.4C245.9 299.8 259.7 283.1 273.3 266.5C282.4 255.5 291.5 244.3 300.6 233.3C301.5 232.3 301.6 231.7 300.3 231C295.9 228.5 291.5 226 287.1 223.4C285.8 222.7 285.3 223 284.6 224.1C271.8 246 259.2 267.7 246.4 289.6C240.6 299.9 234.7 310.1 228.8 320ZM187.1 319.9C187.2 319.9 187.4 319.8 187.4 319.8C187.1 319.2 186.7 318.5 186.4 317.9C173 294.9 159.5 272 146.2 249C141.4 240.8 136.7 232.6 131.8 224.3C131.4 223.6 131.1 222.5 129.7 223.3C125 226.1 120.4 228.7 115.8 231.4C114.9 231.8 114.9 232.4 115.5 233.2C116.4 234.2 117.3 235.4 118.1 236.4C136.6 258.9 155.2 281.3 173.9 303.8C178.3 309.2 182.7 314.6 187.1 319.9ZM278 72.9C277.9 72.8 277.9 72.8 277.7 72.6C277.4 72.9 277.1 73.2 276.8 73.5C265.1 85.2 253.5 97 241.7 108.6C240.8 109.5 240.7 110.1 241.4 111.2C247.9 119.7 254.2 128.2 260.5 136.7C260.6 137 260.8 137.4 261.5 137.3C267.2 115.9 272.6 94.4 278 72.9ZM138.4 73.1C143.8 94.7 149.4 116.1 155 138C161.9 128.7 168.5 119.9 175.1 111.1C176 109.9 175.4 109.3 174.7 108.6C163.1 97 151.6 85.5 140 73.9C139.6 73.7 139.4 73.1 138.4 73.1ZM152.6 149.7C152.3 150 151.9 150.4 151.6 150.7C146.8 156.3 142.1 161.9 137.2 167.3C136.6 168 136.5 168.6 136.9 169.4C142.5 180 148.1 190.7 153.5 201.3C154.1 202.5 154.7 202.5 155.8 201.9C160.2 199.3 164.8 196.6 169.3 194.1C170.8 193.4 170.8 192.5 170.2 191.2C166.5 182.5 163 174 159.5 165.4C157.6 160.7 155.7 155.9 153.6 151.2C153.5 150.7 153.4 150.2 152.6 149.7ZM279.9 168.8C279.9 168.1 279.5 167.6 279 167.2C274.4 161.9 270 156.8 265.5 151.5C263.6 149.3 263.6 149.3 262.6 151.9C262.5 152.3 262.3 152.6 262.2 153.1C256.9 165.9 251.6 178.6 246.3 191.4C245.7 192.7 245.9 193.3 247.2 194C251.6 196.5 256.2 199 260.6 201.6C262.1 202.5 262.7 202.2 263.4 200.7C268.8 190.3 274.3 179.9 279.7 169.4C279.6 169.4 279.8 169.1 279.9 168.8ZM280.5 86C280.4 86.1 280.4 86.3 280.2 86.4C275.5 105 270.7 123.5 266 142.2C265.7 143.2 266 144 266.6 144.7C268.8 147.2 271 149.7 273.2 152.3C275.5 154.9 277.9 157.6 280.5 160.5C280.5 135.5 280.5 110.8 280.5 86ZM136.2 86.4H136C136 110.9 136 135.4 136 160C136.9 159.9 137.2 159.3 137.5 158.8C141.3 154.5 145 150.1 148.8 145.9C150.3 144.4 150.6 143 150 140.9C146.6 127.8 143.4 114.8 140 101.8C138.8 96.6 137.5 91.4 136.2 86.4ZM205.3 223.7C205.3 218.3 205.3 212.8 205.3 207.4C205.3 206.1 204.9 205.3 203.5 205.1C201 204.5 198.7 203.6 196.2 203C192.5 202.1 192.5 202.1 193 205.9C194.3 216.6 195.5 227.5 197 238.2C197.6 242.3 196.4 241.7 201 241.7C201.7 241.7 202.5 241.6 203.2 241.7C204.8 241.8 205.3 241.1 205.3 239.5C205.3 234.4 205.3 229.1 205.3 223.7ZM211.1 223.3C211.1 229.3 211.1 234.3 211.1 239.2C211.1 242 211.1 242 213.7 242C214.7 242 215.8 242 216.8 242C218.4 242.1 218.9 241.6 219.1 239.9C220 232.1 221 224.2 221.9 216.4C222.3 212.3 222.9 208.2 223.5 204.1C223.6 203.1 223.6 202.2 222.2 202.5C218.8 203.4 215.4 204.3 212.1 205.1C211.2 205.4 210.8 205.8 210.9 206.9C211.4 212.7 210.8 218.6 211.1 223.3ZM135.7 179.4C135.6 179.4 135.4 179.4 135.3 179.4C135.3 182.2 135.3 185 135.3 187.8C135.2 196 134.9 204.4 134.7 212.6C134.7 213.8 135 214.1 136 213.3C140.1 211 144.1 208.6 148.2 206.3C149.2 205.7 149.2 205.1 148.8 204.1C145.6 198.1 142.5 192.1 139.4 186C138.2 183.9 137.1 181.6 135.7 179.4ZM281 179.2C280.7 179.5 280.6 179.6 280.6 179.8C276.3 187.9 272.1 196.1 267.8 204.2C267.2 205.4 267.5 206 268.5 206.5C272.5 208.7 276.4 211.1 280.4 213.4C281.7 214.1 281.9 213.7 281.9 212.4C281.8 208.4 281.6 204.5 281.6 200.5C281.5 193.6 281.3 186.8 281.2 179.9C281 179.8 281 179.7 281 179.2ZM286.5 185C286.6 187.2 286.6 188.8 286.8 190.4C286.9 198.6 287.1 206.8 287.2 215.1C287.2 216.7 287.8 217.9 289.3 218.6C292.2 220.2 295 222 298 223.6C298.7 224 299.5 224.6 300.8 224.8C295.9 211.5 291.2 198.5 286.5 185ZM115.8 224.7C116.2 224.7 116.5 224.7 116.7 224.7C120.5 222.5 124.3 220.3 128.3 218.1C129 217.7 129.2 217.1 129.2 216.3C129.3 213.7 129.5 210.9 129.5 208.2C129.6 204.2 129.5 200.1 129.8 196.2C130.1 192.8 129.8 189.6 129.8 185.6C125 198.9 120.5 211.7 115.8 224.7ZM186.1 112.4C192.6 118.9 199 125.3 205.5 131.8C205.5 125.9 205.5 119.8 205.5 113.6C205.5 112.6 204.9 112.4 204 112.4C201.9 112.4 199.9 112.4 197.8 112.4C193.7 112.4 189.8 112.4 186.1 112.4ZM230.6 112.4C230.7 112.4 230.6 112.4 230.3 112.4C224.4 112.4 218.4 112.4 212.5 112.4C211.2 112.4 210.9 113.1 210.9 114.3C210.9 119.9 210.9 125.5 210.9 131.2C210.9 131.6 210.8 132.1 210.9 132.2C217.7 125.5 224.1 118.9 230.6 112.4ZM242.2 187C241.8 187 241.6 186.9 241.5 186.9C239.2 187.5 236.8 188.1 234.5 188.7C230.8 189.6 231 189.7 230.4 193.3C230.1 194.6 230.5 194.9 231.7 194.5C234.2 193.8 236.7 193.2 239.2 192.4C239.6 192.3 240.2 192.1 240.4 191.7C240.9 190.1 241.5 188.6 242.2 187ZM174.2 186.6C174.9 188.4 175.4 189.5 176 190.9C176.3 191.8 176.9 192.4 177.8 192.5C180.1 193.1 182.5 193.7 184.7 194.3C185.1 194.4 185.6 194.4 185.9 194.2C186.8 193.3 185.8 189.5 184.6 189.2C181.3 188.3 177.9 187.6 174.2 186.6Z" fill="white"/>
<path fill-rule="evenodd" clip-rule="evenodd" d="M217 34.8H211.6V19.2H204.3V34.8H198.9V0H204.3V14.4H211.6V0H217V34.8ZM191.5 35.6L197.4 34.9L187.4 21L193 6.40001V6.20001L187.2 6.90001L182.7 19.8L181.3 7.60001L176 8.20001L179.4 37L184.7 36.4L183.2 23.5L191.5 35.6ZM175.2 35C175.6 36.7 174.8 37.8 172.6 38.3L161.7 41C159.6 41.5 158.4 40.9 158 39.2L152.5 16C152.1 14.3 152.9 13.1 155 12.7L165.9 10.1C168 9.59999 169.3 10.2 169.7 11.9L171.3 18.5L166.1 19.7L164.8 14.1L158 15.7L163 36.7L169.8 35.1L168.4 29.2L173.6 28L175.2 35ZM151.3 44.2L156.3 42.4L139.8 17.3L134.5 19.3L138 49V49.1L143 47.3L142.1 41.7L148.4 39.4L151.3 44.2ZM139.4 24.8L146.4 36.2L141.5 38L139.4 24.8ZM131.1 52.6L135.9 50.1L120 19.1L115.2 21.6L121.8 34.4L115.3 37.7L108.7 24.9L103.9 27.4L119.8 58.4L124.6 55.9L117.5 42L124 38.7L131.1 52.6ZM235.4 36.8C237.6 37.1 238.8 36.4 239 34.6L241.8 11.1C242 9.30001 241.1 8.30001 238.9 8.00001L227.4 6.50001C225.3 6.30001 224.1 7.00001 223.9 8.80001L221 32.4C220.7 34.1 221.7 35.1 223.8 35.4L235.4 36.8ZM236.4 11.4L233.8 32.9L226.4 32L229.1 10.5L236.4 11.4ZM260.3 39.7C259.9 41.4 258.6 42 256.4 41.5L245.3 38.7C243.2 38.2 242.4 37 242.8 35.3L249.2 9.70001L254.4 11L248.2 35.6L255.2 37.4L261.4 12.8L266.6 14.1L260.3 39.7ZM275.8 48.3L280.2 50L290.6 22.8L285.7 20.9L280 35.7C279.973 35.8353 279.939 35.9853 279.901 36.1499L279.901 36.1503L279.901 36.151L279.9 36.1517L279.9 36.1526C279.799 36.5957 279.673 37.1449 279.6 37.8L278.1 18L273.7 16.3L263.2 43.4L268.1 45.3L274 30.2C274.027 30.0648 274.061 29.9149 274.099 29.7504L274.099 29.7501L274.099 29.7497L274.099 29.7491L274.1 29.7484L274.1 29.7477L274.1 29.7469L274.1 29.7461C274.202 29.3032 274.327 28.7545 274.4 28.1L275.8 48.3ZM301.9 55.2C301.1 56.7 299.9 57.6 298.3 57.9C296.7 58.2 295 57.8 293.1 56.8L283.5 51.6L297.3 26L306.9 31.2C308.8 32.2 310 33.4 310.7 34.9C311.3 36.4 311.3 37.8 310.4 39.4L301.9 55.2ZM297.4 52L305.3 37.3C306.1 35.9 305.5 34.7 303.7 33.7L300.2 31.8L290 50.8L293.4 52.6C295.3 53.6 296.7 53.4 297.4 52ZM309.9 67.3L314.1 70.3L316.8 66.7L312.6 63.7L309.9 67.3ZM337.3 90.9L333.4 87.1L344.3 75.9L339.1 70.8L328.2 82L324.3 78.3L348.6 53.3L352.5 57L342.5 67.3L347.7 72.4L357.7 62.1L361.6 65.9L337.3 90.9ZM347.9 103.7L351.2 107.8L369.7 84.2L366.1 79.8L339.1 92.7H339L342.3 96.8L347.3 94.2L351.5 99.4L347.9 103.7ZM362.5 86.1L353.9 96.4L350.6 92.3L362.5 86.1ZM364.2 123.3C362.7 124.2 361.4 123.8 360.2 121.9L354.2 112.4C353.1 110.6 353.3 109.2 354.8 108.3L374.9 95.6C376.4 94.6 377.7 95.1 378.9 96.9L384.9 106.4C386.1 108.3 385.9 109.7 384.4 110.6L378.6 114.2L375.8 109.7L380.7 106.6L377 100.7L358.7 112.2L362.4 118.1L367.6 114.8L370.4 119.3L364.2 123.3ZM368.9 139L371.4 144.3L381.6 130.6L397.2 131.2L397.4 131.1L394.9 125.8L381.2 125.7L392.3 120.4L390 115.6L363.7 128.1L366 132.9L377.7 127.3L368.9 139ZM377.8 162.9L376.1 157.8L390.9 152.8L388.6 145.9L373.8 150.9L372.1 145.8L405.1 134.6L406.8 139.7L393.2 144.3L395.5 151.2L409.1 146.6L410.8 151.7L377.8 162.9ZM381.6 180.9C382.1 183.1 383.2 184 384.9 183.6L408.2 178.7C410 178.4 410.6 177.1 410.2 175L407.9 163.6C407.4 161.5 406.3 160.6 404.6 161L381.3 165.8C379.5 166.2 378.9 167.4 379.3 169.5L381.6 180.9ZM404.6 166.6L406.1 173.8L384.9 178.1L383.4 170.9L404.6 166.6ZM387 205.4C385.2 205.5 384.3 204.5 384.1 202.3L383.1 190.9C382.9 188.7 383.7 187.6 385.5 187.4L411.8 185.2L412.3 190.6L387 192.7L387.6 199.9L412.9 197.8L413.4 203.2L387 205.4ZM383.8 222.9L383.6 227.6L412.7 228.8L412.9 223.6L397.1 222.9C396.6 222.9 395.9 223 395 223.2L413.3 215.4L413.5 210.7L384.4 209.5L384.2 214.7L400.4 215.4C400.9 215.4 401.6 215.3 402.5 215.1L383.8 222.9ZM385.7 249.8C384 249.5 382.8 248.7 382 247.3C381.2 245.9 381 244.2 381.4 242.1L383.2 231.3L411.9 236.1L410.1 246.9C409.7 249 409 250.6 407.8 251.7C406.6 252.8 405.2 253.2 403.5 252.9L385.7 249.8ZM387.3 244.6L403.8 247.4C405.4 247.7 406.4 246.8 406.7 244.7L407.4 240.8L386.1 237.2L385.5 241C385 243.1 385.6 244.3 387.3 244.6ZM376.9 261.3L375.3 266.2L379.6 267.6L381.2 262.7L376.9 261.3ZM363.1 294.7L365.4 289.8L379.5 296.5L382.6 289.9L368.5 283.2L370.8 278.4L402.2 293.4L399.9 298.2L386.9 292L383.8 298.6L396.8 304.8L394.5 309.7L363.1 294.7ZM354.4 308.8L351.5 313.3L379.8 323.1L382.8 318.3L362 296.8H361.9L359.1 301.3L363.2 305.2L359.6 310.9L354.4 308.8ZM375.7 317L363.2 312.2L366 307.7L375.7 317ZM340.9 330.6C339.5 329.5 339.5 328.1 340.9 326.4L348 317.7C349.3 316.1 350.7 315.8 352.1 316.9L370.5 331.9C371.9 333 371.9 334.4 370.6 336.1L363.5 344.8C362.1 346.5 360.7 346.8 359.4 345.7L354.1 341.4L357.5 337.3L361.9 340.9L366.3 335.5L349.6 321.8L345.2 327.2L349.9 331.1L346.5 335.2L340.9 330.6ZM327.6 340.1L323.4 344.2L339.8 349.5L344.2 364.5L344.3 364.6L348.5 360.5L344.2 347.5L352.8 356.3L356.7 352.6L336.4 331.7L332.5 335.4L341.5 344.7L327.6 340.1ZM307.8 356.1L312.1 352.8L321.6 365.2L327.4 360.8L317.9 348.4L322.2 345.1L343.4 372.8L339.1 376.1L330.4 364.7L324.6 369.1L333.3 380.5L329 383.8L307.8 356.1ZM292 365.7C290.1 366.8 289.6 368.1 290.5 369.6L302.5 390.1C303.4 391.7 304.8 391.9 306.7 390.8L316.8 384.9C318.6 383.8 319.1 382.5 318.2 381L306.2 360.5C305.3 359 303.9 358.7 302.1 359.8L292 365.7ZM306.6 386.5L295.7 367.8L302.1 364.1L313 382.8L306.6 386.5ZM270.4 378.5C269.7 376.9 270.4 375.6 272.4 374.8L282.9 370.3C284.9 369.4 286.2 369.8 286.9 371.5L297.3 395.8L292.4 397.9L282.4 374.6L275.8 377.5L285.8 400.8L280.9 402.9L270.4 378.5ZM252.9 381L248.4 382.3L256.5 410.2L261.5 408.7L257.1 393.5C257 393 256.7 392.4 256.2 391.6L269.4 406.4L273.9 405.1L265.8 377.2L260.8 378.7L265.3 394.3C265.4 394.8 265.7 395.4 266.2 396.2L252.9 381ZM228 391.4C227.7 389.7 228.1 388.3 229.2 387.1C230.3 385.9 231.9 385.2 234 384.9L244.8 383.2L249.4 411.9L238.6 413.6C236.5 413.9 234.8 413.7 233.4 412.9C232 412.1 231.2 410.9 230.9 409.2L228 391.4ZM233.5 391.2L236.1 407.7C236.4 409.3 237.5 409.9 239.6 409.6L243.5 409L240.1 387.7L236.3 388.3C234.2 388.6 233.2 389.6 233.5 391.2ZM214.3 386.7L209.1 386.8L209.2 391.3L214.4 391.2L214.3 386.7ZM178.2 384.4L183.6 385L181.8 400.5L189 401.4L190.8 385.9L196.1 386.5L192 421.1L186.7 420.5L188.4 406.2L181.2 405.3L179.5 419.6L174.1 419L178.2 384.4ZM162.1 380.7L156.9 379.4L156.7 409.5L162.2 410.8L175.8 384.2V384.1L170.7 382.8L168.3 387.9L161.8 386.3L162.1 380.7ZM161.1 403.5L161.7 390.1L166.8 391.4L161.1 403.5ZM137.2 374.9C137.8 373.2 139.2 372.8 141.2 373.6L151.7 377.5C153.7 378.2 154.4 379.5 153.8 381.1L145.4 403.3C144.8 405 143.5 405.4 141.5 404.7L131 400.8C129 400 128.2 398.8 128.9 397.1L131.3 390.7L136.3 392.6L134.3 398L140.8 400.4L148.4 380.2L141.9 377.8L139.7 383.5L134.7 381.6L137.2 374.9ZM124 365.3L118.7 362.6L119.1 379.9L106.3 388.8L106.2 389L111.4 391.7L122.3 383.5L116.7 394.4L121.5 396.9L134.8 371L130 368.5L124.1 380L124 365.3ZM102.4 351.7L106.9 354.7L98.2 367.7L104.2 371.8L112.9 358.8L117.4 361.8L97.9 390.7L93.4 387.7L101.4 375.8L95.4 371.7L87.4 383.6L82.9 380.6L102.4 351.7ZM88.3 339.7C86.7 338.3 85.3 338.3 84.1 339.6L68.5 357.4C67.3 358.8 67.6 360.2 69.2 361.6L78 369.3C79.6 370.7 81 370.7 82.2 369.4L97.8 351.5C98.9 350.2 98.7 348.8 97.1 347.4L88.3 339.7ZM73.3 360.2L87.5 343.9L93 348.8L78.9 365L73.3 360.2ZM69.3 323.4C70.6 322.2 72 322.4 73.5 324.1L81.1 332.6C82.6 334.2 82.6 335.6 81.3 336.8L61.6 354.5L58 350.5L76.9 333.6L72.1 328.2L53.2 345.1L49.6 341.1L69.3 323.4ZM61.2 307.7L58.5 303.8L34.6 320.4L37.6 324.7L50.6 315.6C51 315.3 51.5 314.8 52.1 314.1L42.3 331.4L45 335.3L68.9 318.7L65.9 314.4L52.6 323.7C52.2 324 51.7 324.5 51.1 325.2L61.2 307.7ZM43.4 287.4C44.9 286.6 46.4 286.5 47.8 287.2C49.2 287.9 50.5 289.1 51.5 291L56.6 300.7L30.9 314.3L25.8 304.6C24.8 302.7 24.5 301 24.7 299.4C25 297.8 25.9 296.6 27.4 295.8L43.4 287.4ZM45.3 292.5L30.5 300.3C29.1 301.1 28.8 302.4 29.8 304.2L31.7 307.7L50.8 297.6L49 294.2C48 292.3 46.8 291.7 45.3 292.5ZM43.5 272.9L41.8 268L37.6 269.5L39.3 274.4L43.5 272.9ZM34.1 237.9L35.2 243.2L19.9 246.4L21.4 253.5L36.7 250.3L37.8 255.6L3.7 262.7L2.6 257.4L16.7 254.5L15.2 247.4L1.1 250.3L0 245L34.1 237.9ZM32.6 221.4L32.1 216.1L3.79999 225.4L4.29999 231L33.8 235.5H33.9L33.4 230.2L27.8 229.6L27.2 222.9L32.6 221.4ZM10.6 227.8L23.5 224.1L23.9 229.3L10.6 227.8ZM30 196C31.8 196.1 32.6 197.2 32.6 199.4L32.2 210.6C32.1 212.7 31.2 213.8 29.4 213.7L5.70001 212.9C3.90001 212.8 3.10001 211.8 3.10001 209.6L3.50001 198.4C3.60001 196.2 4.50001 195.1 6.30001 195.2L13.1 195.4L12.9 200.7L7.20001 200.5L7.00001 207.4L28.6 208.1L28.8 201.1L22.7 200.9L22.9 195.6L30 196ZM34.8 180.5L35.7 174.6L19.6 180.5L7.00001 171.2H6.80001L5.90001 177L17.2 184.6L5.00001 182.8L4.20001 188.1L33 192.4L33.8 187.1L21 185.2L34.8 180.5ZM40.8 155.6L39.4 160.8L24.3 156.7L22.4 163.7L37.5 167.8L36.1 173L2.5 163.8L3.9 158.6L17.7 162.4L19.6 155.4L5.8 151.6L7.2 146.4L40.8 155.6ZM47.7 138.4C48.5 136.4 48.1 135.1 46.5 134.4L24.4 125.2C22.8 124.5 21.5 125.2 20.7 127.2L16.3 138C15.5 140 15.9 141.3 17.6 142L39.6 151.1C41.3 151.8 42.5 151.2 43.3 149.2L47.7 138.4ZM23.4 130.8L43.4 139L40.6 145.8L20.6 137.6L23.4 130.8ZM57.1 115.2C58.6 116.1 58.9 117.5 57.8 119.4L52.2 129.3C51.1 131.2 49.8 131.7 48.3 130.8L25.3 117.8L27.9 113.1L50 125.6L53.6 119.3L31.5 106.8L34.1 102.1L57.1 115.2ZM69.4 102.6L72.2 98.8L48.8 81.5L45.7 85.7L58.4 95.1C58.8 95.4 59.4 95.8 60.3 96.1L40.8 92.3L38 96.1L61.4 113.5L64.5 109.3L51.5 99.6C51.1 99.3 50.5 98.9 49.6 98.6L69.4 102.6ZM83 79.2C84.2 80.4 84.8 81.8 84.6 83.3C84.4 84.9 83.6 86.4 82.2 88L74.6 96L53.5 76L61 68.1C62.5 66.6 64 65.7 65.6 65.4C67.2 65.2 68.6 65.6 69.8 66.8L83 79.2ZM78.7 82.6L66.6 71.1C65.4 70 64.1 70.2 62.7 71.7L59.9 74.6L75.6 89.5L78.3 86.7C79.8 85.1 79.9 83.8 78.7 82.6ZM96.8 74.6L100.8 71.4L98 67.9L94 71.1L96.8 74.6Z" fill="white"/>
</svg>
